function data()
return {
	subMeshes = {
		{
			indices = {
				normal = {
					count = 125328,
					offset = 700348,
				},
				position = {
					count = 125328,
					offset = 449692,
				},
				tangent = {
					count = 125328,
					offset = 825676,
				},
				uv0 = {
					count = 125328,
					offset = 575020,
				},
			},
		},
	},
	vertexAttr = {
		normal = {
			count = 80520,
			numComp = 3,
			offset = 194596,
		},
		position = {
			count = 109332,
			numComp = 3,
			offset = 0,
		},
		tangent = {
			count = 174576,
			numComp = 4,
			offset = 275116,
		},
		uv0 = {
			count = 85264,
			numComp = 2,
			offset = 109332,
		},
	},
}
end
