function data()
return {
	subMeshes = {
		{
			indices = {
				normal = {
					count = 8976,
					offset = 55972,
				},
				position = {
					count = 8976,
					offset = 38020,
				},
				tangent = {
					count = 8976,
					offset = 64948,
				},
				uv0 = {
					count = 8976,
					offset = 46996,
				},
				uv1 = {
					count = 8976,
					offset = 73924,
				},
			},
		},
	},
	vertexAttr = {
		normal = {
			count = 5172,
			numComp = 3,
			offset = 14616,
		},
		position = {
			count = 8328,
			numComp = 3,
			offset = 0,
		},
		tangent = {
			count = 12576,
			numComp = 4,
			offset = 19788,
		},
		uv0 = {
			count = 6288,
			numComp = 2,
			offset = 8328,
		},
		uv1 = {
			count = 5656,
			numComp = 2,
			offset = 32364,
		},
	},
}
end
