function data()
return {
	subMeshes = {
		{
			indices = {
				normal = {
					count = 8976,
					offset = 56176,
				},
				position = {
					count = 8976,
					offset = 38224,
				},
				tangent = {
					count = 8976,
					offset = 65152,
				},
				uv0 = {
					count = 8976,
					offset = 47200,
				},
				uv1 = {
					count = 8976,
					offset = 74128,
				},
			},
		},
	},
	vertexAttr = {
		normal = {
			count = 5376,
			numComp = 3,
			offset = 14616,
		},
		position = {
			count = 8328,
			numComp = 3,
			offset = 0,
		},
		tangent = {
			count = 12576,
			numComp = 4,
			offset = 19992,
		},
		uv0 = {
			count = 6288,
			numComp = 2,
			offset = 8328,
		},
		uv1 = {
			count = 5656,
			numComp = 2,
			offset = 32568,
		},
	},
}
end
