function data()
return {
	subMeshes = {
		{
			indices = {
				normal = {
					count = 8976,
					offset = 56164,
				},
				position = {
					count = 8976,
					offset = 38212,
				},
				tangent = {
					count = 8976,
					offset = 65140,
				},
				uv0 = {
					count = 8976,
					offset = 47188,
				},
				uv1 = {
					count = 8976,
					offset = 74116,
				},
			},
		},
	},
	vertexAttr = {
		normal = {
			count = 5364,
			numComp = 3,
			offset = 14616,
		},
		position = {
			count = 8328,
			numComp = 3,
			offset = 0,
		},
		tangent = {
			count = 12576,
			numComp = 4,
			offset = 19980,
		},
		uv0 = {
			count = 6288,
			numComp = 2,
			offset = 8328,
		},
		uv1 = {
			count = 5656,
			numComp = 2,
			offset = 32556,
		},
	},
}
end
