function data()
return {
	subMeshes = {
		{
			indices = {
				normal = {
					count = 9648,
					offset = 98296,
				},
				position = {
					count = 9648,
					offset = 79000,
				},
				tangent = {
					count = 9648,
					offset = 107944,
				},
				uv0 = {
					count = 9648,
					offset = 88648,
				},
			},
		},
	},
	vertexAttr = {
		normal = {
			count = 28944,
			numComp = 3,
			offset = 11464,
		},
		position = {
			count = 6480,
			numComp = 3,
			offset = 0,
		},
		tangent = {
			count = 38592,
			numComp = 4,
			offset = 40408,
		},
		uv0 = {
			count = 4984,
			numComp = 2,
			offset = 6480,
		},
	},
}
end
