function data()
return {
	subMeshes = {
		{
			indices = {
				normal = {
					count = 3696,
					offset = 39336,
				},
				position = {
					count = 3696,
					offset = 31944,
				},
				tangent = {
					count = 3696,
					offset = 43032,
				},
				uv0 = {
					count = 3696,
					offset = 35640,
				},
			},
		},
		{
			indices = {
				normal = {
					count = 216,
					offset = 47160,
				},
				position = {
					count = 216,
					offset = 46728,
				},
				tangent = {
					count = 216,
					offset = 47376,
				},
				uv0 = {
					count = 216,
					offset = 46944,
				},
			},
		},
	},
	vertexAttr = {
		normal = {
			count = 11736,
			numComp = 3,
			offset = 4560,
		},
		position = {
			count = 2736,
			numComp = 3,
			offset = 0,
		},
		tangent = {
			count = 15648,
			numComp = 4,
			offset = 16296,
		},
		uv0 = {
			count = 1824,
			numComp = 2,
			offset = 2736,
		},
	},
}
end
