function data()
return {
	subMeshes = {
		{
			indices = {
				normal = {
					count = 125328,
					offset = 1322548,
				},
				position = {
					count = 125328,
					offset = 1071892,
				},
				tangent = {
					count = 125328,
					offset = 1447876,
				},
				uv0 = {
					count = 125328,
					offset = 1197220,
				},
			},
		},
	},
	vertexAttr = {
		normal = {
			count = 375984,
			numComp = 3,
			offset = 194596,
		},
		position = {
			count = 109332,
			numComp = 3,
			offset = 0,
		},
		tangent = {
			count = 501312,
			numComp = 4,
			offset = 570580,
		},
		uv0 = {
			count = 85264,
			numComp = 2,
			offset = 109332,
		},
	},
}
end
